<svg height="2500" viewBox="-63.04101753 4.22 290.17725484 282.19386925" width="1875" xmlns="http://www.w3.org/2000/svg"><path d="m104.996 28.517c-62.476 0-99.756 22.094-99.756 22.094l.76 50.311c0 23.095 7.545 121.359 98.995 174.857 91.5-53.498 98.999-151.73 98.999-174.862l.756-50.307c0 .001-37.252-22.093-99.754-22.093" fill="#231f20"/><path d="m200.998 54.222s-32.498-20.705-96.002-20.705c-63.496 0-95.997 20.705-95.997 20.705l.997 46.696c0 18.296 3.502 116.305 95 169.494 91.5-53.18 94.997-151.193 94.997-169.494z" fill="#fff200"/><path d="m205.002 34.218-100.006-16.998-99.997 16.998.25 16.78s50.252-21.812 99.747-21.807c49.499 0 99.75 21.807 99.75 21.807z" fill="#ed1c24"/><path d="m4.999 29.219v-5.997l100.005-19.002 99.998 19.002v6.001l-100.006-18.501z" fill="#009a4e"/><path d="m102.744 41.263s-.107 1.083-.364 1.716c-.232.579-.868.979-.824 1.366.041.392.458.847 1.086 1.175.628.323.881.574 1.517.738.592.141 1.341.583 1.562.082.215-.497-.111-1.121-.476-1.712-.626-1.024-.938-1.271-1.865-2.691-.197-.301-.356-.634-.636-.674m-4.686 111.159c.059-.178 1.548.751 2.313 1.207 1.617.965 2.35 1.539 3.782 2.622a47.555 47.555 0 0 1 2.816 2.286c1.398 1.201 2.15 2.227 2.527 1.984.537-.654-.893-2.559-2.16-3.597-1.234-1.007-2.507-1.836-3.497-2.495-1.264-.828-1.375-1.029-3.272-2.3-2.033-1.362-3.791-3.069-3.791-3.069l-1.983-1.562-3.101-2.619-3.44-3.178-2.607-2.896s-2.024-2.477-2.345-2.946c-.321-.478-1.272-2.008-2.065-3.306-.706-1.161-2.067-2.969-2.197-3.124-.733-.893-2.416-.533-4.364-1.685-2.377-1.398-2.946-2.673-2.946-2.673s-.093-.191-.177-.292c-.089-.109-.271-.229-.271-.229l-1.236-.875-.713-.469s-.546-.446-1.227-.738c-.676-.296-2.195-1.179-2.195-1.179l-2.714-1.73s-1.063-.856-1.418-1.138c-.353-.278-1.024-.66-1.024-.66s-.426-.219-.556-.223c-.129-.009-.689-.064-.689-.064s-.521-.132-1.054.492c-.535.624-.41.292.458 3.812.339 1.398.307 6.297.676 7.782.476 1.921 1.812 4.398 1.949 4.69.139.287.232 1.362.232 1.362s-.055.865.039 1.411c.41 2.527 4.112.865 4.927 4.334.808 3.426-.48 6.845-.48 6.845s-.801 1.694-1.919 1.968c-1.125.264-2.864-2.218-4.124-4.234-1.241-1.977-2.261-4.571-2.586-5.396-.328-.82-.496-1.002-.872-1.607-.556-.883-1.009-.729-1.628-2.126-.622-1.407-.071-1.972-.355-3.197-.157-.678-.307-.751-.517-1.721-.209-.97-.485-4.039-.485-4.039l-.392-2.869s-.141-1.307-.316-2.122c-.631-2.864-.84-5.633-.84-5.633l-.116-1.134-.048-1.175s-.036-.569.103-1.147c.141-.583.426-1.065.426-1.065s.574-.97.672-1.207c.098-.232 1.282-1.603 1.282-1.603s.61-.505 1.621-1.134c1.008-.619 1.921-.569 1.921-.569s.262-.032 2.051.191c1.796.228 5.48 1.202 6.402 1.448.92.242 2.01.628 2.728 1.02 2.047 1.116 2.668.642 1.036-.628-1.095-.86-1.402-1.243-2.286-2.053-.745-.679-1.332-1.139-1.887-1.771-.551-.638-2.145-2.982-2.145-2.982l-.988-1.466s-.538-.592-.622-.638a5.34 5.34 0 0 1 -.353-.255s-.653.037-1.334-.1c-.681-.127-1.002.824-1.002.824s-1.473 2.75-2.971 4.435c-2.42 2.732-4.16 4.594-5.054 6.042-1.25 2.017-.979 4.226-1.624 5.246-.375.601-.578.688-.783 1.211-.628 1.584 1.655 2.454 1.134 4.212-.831 2.787-7.363 5.546-8.23 5.082-.895-.474-.162-4.239.141-5.464.308-1.225 1.221-3.023 1.305-3.119.084-.091.303-.514.374-.874.07-.364.093-1.175.139-1.635.043-.451.226-1.17.226-1.17s.032-.146.605-1.407c.579-1.257 2.705-4.185 4.235-6.98.993-1.826 1.416-2.933 2.418-4.75.929-1.685 2.509-4.239 2.509-4.239s.672-1.307.988-1.794c.319-.497.986-1.443 1.609-2.368.631-.924.788-1.621 1.614-2.382.686-.633 1.146-.97 2.038-1.261 1.328-.437 2.238-.196 3.586.178 1.412.387 2.377 1.029 3.294 1.794a12.997 12.997 0 0 1 1.601 1.617l.444.656.273.164.858.546 1.954 1.298s4.635 3.151 4.888 3.319c.25.164 1.077.847 1.248.906.168.046 1.405-1.289 3.825-2.964 2.803-1.939 3.8-1.79 4.717-2.295.92-.505 1.302-.929 2.02-1.648 1.086-1.093 1.091-1.667 2.327-3.187 1.241-1.521 2.406-2.368 2.406-2.368s.168-.168 2.381-2.664c2.215-2.5 3.19-4.39 3.19-4.39l1.218-2.427s1.758-3.775 2.322-5.269c.563-1.498.563-2.003.563-2.003s.084-.387-.348-1.147c-.435-.761-.886-.415-1.721-.242-1.617.342-2.593-.077-4.219-.359-1.494-.255-2.272-.692-3.764-.947-1.512-.255-2.397-.496-3.912-.351a5.435 5.435 0 0 0 -.924.191c-.849.287-1.09.351-1.726.715-.735.351-1.22.464-2.038.482-.563.009-.909.027-1.43-.177-.36-.137-.56-.242-.85-.497a2.247 2.247 0 0 1 -.396-.456c-.014-.164-.066-.155.089-.41.148-.264.344-.31.344-.31l.697-.173s.979-.26 1.061-.278c.089-.023 1.022-.328 1.432-.456.417-.132.868-.369.868-.369s.257-.396.155-.633c-.116-.26-.671-.278-.671-.278s-.783.278-.872.296l-1.321.419s-.979.214-1.735.392c-.758.173-1.846.259-1.846.259l-.326-.086s-.378-.25-.433-.5c-.052-.232-.089-.41-.132-.669-.157-.961-.349-1.548-.13-2.496.093-.396.187-.61.36-.983.143-.314.237-.487.423-.779l.605-.974 1.129-1.671a4.092 4.092 0 0 1 1.127-.856c.724-.405 1.143-.523 2.038-.624.888-.091 1.004-.082 2.259-.364 1.259-.282 2.149-.783 2.149-.783s3.003-1.102 4.836-2.003c1.915-.938 2.759-1.949 4.749-2.728a15.73 15.73 0 0 1 2.193-.697.404.404 0 0 0 .196-.264c.089-.318-.405-.469-.738-.432-.294.027-.979.341-1.136.004-.123-.269.628-.423.628-.423s.351-.164.355-.364c.013-.296-.508-.105-.738-.128-1.161-.127-1.254-.341-2.061-.542-.956-.237-1.473-.528-2.452-.565-.876-.041-1.694.15-2.233.282-.546.132-.564-.4-.351-.5 1.53-.715 1.562-.779 2.639-.824.592-.023 1.418.109 1.507.15.089.046 1.268-.013 1.576-.318.303-.301-.975-.287-1.576-.524-.551-.223-1.4-.282-1.38-.651.023-.369.437-.168.727-.237.364-.086.583-.082.956-.137.676-.091.738-.146 1.739-.237.998-.086 2.43.328 2.43.328s1.496.669 2.233 1.015c.737.351 1.628.524 1.628.524s1.037.155 1.841-.351c.808-.501.354-.82.064-1.275-.275-.433-.625-1.042-.107-2.217.457-1.024.689-2.208.826-2.318.152-.132.797.779 1.201 1.161 1.463 1.366 3.412 2.049 5.236 4.918.143.232.834-.137 2.957.187 2.125.328 3.971 2.604 4.447 3.146.479.542 1.106.523 1.106.523l1.021.132 3.707.063s1.684-.296 2.653.068c.679.25 2.938 1.762 1.908 2.341-.722.4-1.401-.483-2.049-.528-.771-.05-1.111.091-1.796.264-1.438.364-4.524 1.298-3.405 1.676.092.027.237.059.237.059l.564.091s1.355.31 2.166.633c1.244.492 1.818 1.033 2.975 1.703.642.378.935.756 1.644.965.656.191 1.07-.004 1.74.114.879.155 1.375.328 2.176.715 1.187.578 1.631 1.27 2.705 2.04.528.387.976.451 1.375.97.092.118.174.173.211.314.146.478-.782.196-1.274.119-.543-.091-.779-.36-1.275-.592-.738-.341-1.094-.733-1.904-.883-.592-.109-.938-.018-1.539.009-.578.027-.896.118-1.475.127-.998.014-1.566-.078-2.541-.278-1.092-.228-1.629-.66-2.732-.883-1.219-.255-3.406-1.307-3.188-.26.105.51 1.266.934 1.266.934s.779.433 1.539.76c.762.328 1.172.824 1.172.824l.523.392s.537.738 1.234 1.562c.694.829 1.905.806 1.905.806s.738 0 2.328.323c1.58.328 3.209 1.302 3.209 1.302s1.239.842 1.949 1.694c.715.842.305 1.275.219 1.366-.086.086-.063.041-.149.086-.086.041-.979-1.061-.979-1.061l-.629-.546s-.63-.433-1.435-.697c-.803-.259-1.061-.082-1.061-.082s-1.713.474-3.188.433c-1.478-.041-2.261-.628-2.261-.628l-.934-.628s-1.406-1.32-1.451-.697c-.033.424.619.893.619.893s.459.46.756.747c.563.555.791.838 1.442 1.42.65.587 1.062.587 1.062.587s.351.082.481.105c.127.022.365.091.365.091s.219.082 1.238.497c1.02.414 2.107 1.302 2.107 1.302s.104.091.256.109c.154.022.459.168.545.196.088.022.348.022.934.104.584.091.369.46.369.46l-.109.15-.477.323s-.629.178-1.066.196c-.434.022-1.039-.214-1.039-.214l-1.323-.5s-1.324-.346-1.604-.392a43.456 43.456 0 0 1 -1.67-.323 6.932 6.932 0 0 1 -.957-.346c-.154-.091-.455-.155-1.166-.501-.719-.351-1.006-.76-1.895-1.043-.887-.282-1.43-.341-2.104.132-1.146.792 1.739.92 3.184 1.635 2.117 1.042 3.313 1.817 3.824 2.946.506 1.134 1.021 1.548 1.021 1.548s1.487.751 2.166 1.539c.364.423.424.779.782 1.207.824.957 2.41.911 2.73 1.726.301.76-1.285.419-2.113.341-1.494-.146-1.851-1.507-3.242-2.063-.783-.31-1.289-.314-2.094-.583-1.457-.482-2.142-1.116-3.607-1.571-.883-.269-2.494-1.443-2.303-.542.049.223.172.387.24.519.063.132.434.605.434.605s.5.656.719.824c.215.178 1.166.893 2.514 1.63s2.514 2.149 2.514 2.149.4.574.593.979c.198.446.063.583.362 1.211.308.628.457.747.849 1.129.983.956 2.013.765 3.278 1.284.337.132.363.191.736.583.365.392-.068.565-.068.565s-1.396.351-2.299.278c-1.176-.096-1.692-.451-2.842-1.016-1.146-.564-1.758-1.584-1.867-1.653-.108-.064-.387-.369-.604-.524-.219-.146-.772-.269-1.278-.41-.5-.137-.802-.159-1.304-.3-.69-.196-1.41-.501-1.733-.606-.328-.109-1.078-.246-1.617.078-1.092.642 1.682 1.083 2.551 1.999.441.474.619.801 1.039 1.284.318.374.449.638.846.934.273.201.762.41.762.41s.668.31 1.644.847c.983.542 2.131 2.063 2.131 2.063l.692 1.061.418.61.105.282.15.346s.5.651.869.865c.369.218.305.414.305.414s-.045.132-.305.283c-.26.155-.394.022-.76-.087-.375-.104-.605-.455-.931-.715-.328-.264-.685-.915-1.283-1.284-.524-.314-1.213-.428-1.477-.519-.261-.086-.91-.496-1.171-.605-.26-.109-.934-.415-.934-.415s-1.311-.737-2.021-.933c-.72-.196-.265.246-.265.246s.65 1.002 1.267 1.407c.801.533 1.926 1.001 1.563 1.43-.246.287-.584.182-.953.137-.601-.064-1.328-.788-1.328-.788s-.301-.196-1.646-.628c-1.348-.438-.853.305-.547.692.306.392.722.61.722.61l.903.41.42.132s.363.064 1.584.346c1.211.282 1.886.865 1.886.865s.651.615 1.559 1.284c.92.669 1.826.847 2.322.915.5.059.479.41.479.41s.068.323.045.432-.133.196-.236.196c-.115 0-.156.041-.287.109-.127.064-.651.15-.651.15s-1.365-.045-2.427-.3c-1.065-.264-1.993-.998-2.086-1.047-.082-.041-1.084-.583-1.754-.802-.678-.218-1.737-.127-1.844-.086-.109.045-.479.109-1.111.282-.627.173.156.41.156.41l.455.05 1.084.082s1.105.132 2.063.483c.95.341 1.561 1.038 2.188 1.667a7.596 7.596 0 0 0 1.326 1.042l.496.323.264.196.064.173s-.02.091-.064.196c-.045.114-.195.196-.195.196s-.241-.041-.352-.041c-.109 0-.814-.378-1.338-.61-.557-.246-.834-.464-1.416-.605-.506-.123-1.172-.173-1.316-.132-.153.041-1.262.196-2.112.26a11.9 11.9 0 0 1 -2.591-.045c-1.436-.173-3.334-1.302-3.575-.984-.496.651 1.024.847 1.75 1.266 1.006.578 2.75 1.111 2.75 1.111s1.267.283 2.012.628c1.632.756 2.127 1.872 3.435 3.056.729.665 1.303.947 2.276 1.088.835.118.824.022 2.148-.237 1.319-.264 2.131-1.521 2.514-1.066.078.096.048.173.021.305-.021.127-.129.369-.129.369s-.15.218-.388.455c-.237.237-1.151.738-1.625.934-.479.196-1.653.519-3.125.474-1.479-.041-3.54-1.17-3.54-1.17l-1.494-.628s-.691-.328-1.148-.501c-1.238-.459-2.021-.419-3.301-.76-.797-.209-1.303-.433-2.019-.583-.719-.146-.317.132-.239.242.342.451.782.596 1.348.865.752.364 1.279.292 2.063.606.855.355 1.604.852 2.076 1.152.479.305.828.642 1.285 1.129l1.584 1.343s.369.305.41.433c.045.132.219.455.131.979-.086.523-.514.155-.514.155l-.42-.26-.408-.392-.674-.546s-.566-.519-1.539-1.02c-.976-.496-2.15-.628-2.15-.628s-1.043-.155-1.002.173c.047.328.287.351 1.107.564.824.219 1.369.628 1.369.628s.848.633 1.448 1.325c.615.697.783 1.366.783 1.366s.306.565 1.088 1.325c.779.761 1.197.501 1.147.865-.041.369-.393.437-.393.437s-.191-.022-.277-.022c-.082 0-.287-.109-.502-.191-.213-.091-1.037-.656-1.037-.656s-1.284-1.038-1.438-1.152c-.146-.105-1.364-1.016-1.364-1.016s-.711-.455-1.234-.719a13.568 13.568 0 0 0 -1.607-.651c-.393-.127-1.102-.173-1.102-.173s-.875-.127-1.389-.323c-.834-.314-1.8-1.202-1.904-1.243-.104-.045-.887-.305-1.037-.282-.15.022-.498 1.475-.578 2.313-.355 3.524.582 5.86 2.029 9.089 2.108 4.694 7.951 10.527 7.951 10.527s1.467.838 2.094 1.33c1.75 1.371 4.645 3.306 7.205 5.865 2.192 2.194 5.117 6.094 5.117 6.094s1.68 2.354 2.459 4.016c.961 2.045 1.727 5.15 1.727 5.15s.068.541.131.649c.059.114.201.251.311.256l1.021.036c.108 0 1.267-.092 2.03-.282.765-.19 2.576-1.016 3.771-1.647 1.193-.625 2.628-1.84 2.628-1.84s.27-.229 1.672-1.785c1.401-1.558 2.305-3.894 2.641-4.769.328-.883.605-2.563.814-5.445.215-2.883-.177-5.934-.177-5.934s-.528-4.253-.849-5.696c-.317-1.448-1.084-3.797-1.084-3.797s-.536-2.104-.711-3.429c-.164-1.33-.198-3.483-.198-3.483s0-1.321.438-3.761c.432-2.437 1.93-4.886 1.93-4.886s.414-.819 2.031-2.75c1.639-1.963 2.168-2.281 3.789-3.452 1.282-.929 2.955-2.409 3.496-2.063.602.382-.589 1.134-.982 1.525-1.012.997-2.91 2.777-4.445 5.446-1.334 2.313-1.83 3.843-2.168 5.35-.332 1.512-.191 3.16-.15 3.729.047.564.361.36.361.36s3.25-2.609 5.018-4.595c1.922-2.14 3.619-5.951 4.289-5.983.445-.023.66.997.555 1.461-.428 1.981-.563 2.231-1.2 3.534-.746 1.516-1.422 2.19-2.44 3.57-1.084 1.457-1.603 2.017-2.468 3.943-1.248 2.773-.521 4.913-.521 4.913s.15 1.302.738 1.284c.982-.032 3.133-2.746 4.535-4.963 1.033-1.635 1.41-3.515 2.094-4.499.609-.878 1.156 1.425.896 2.782-.305 1.607-1.105 3.051-2.854 5.328-1.713 2.227-1.654 4.344-1.654 4.344s-.186.97-.322 3.073c-.137 2.104.465 5.292.465 5.292s.545 2.664.646 4.69c.1 2.021.031 6.644-1.863 10.228-.752 1.443-2.377 3.438-2.377 3.438s-1.234 1.274-2.264 2.021c-1.023.747-3.469 1.898-3.469 1.898s-1.693.592-1.939.646c-.238.063-.4.271-.4.271l.227.461c.06.137.537 1.303.537 1.303s.511 1.662.701 2.979c.191 1.307-.031 1.606-.223 2.617-.182.961-.605.516-.711 2.409-.096 1.671.67 2.505.529 4.376-.062.818-.992-1.023-1.437-1.813-.954-1.722-.723-4.34-.745-4.99-.027-.651-.072-1.366-.314-2.204-.305-1.058-.732-1.896-1.234-2.541-.5-.646-1.029-1.011-1.211-.951-.172.06-.182.405-.191.578-.008.173.342.792.429.929.077.133.711 1.284.711 1.284s.276.879.394 2.597c.108 1.721-.421 3.828-.421 3.828s-.684 2.396-1.411 3.793c-.806 1.553-2.586 3.666-2.586 3.666s-1.275 1.17-2.23 3.092c-.957 1.922-.137 2.764-.492 3-.363.252-1.119-1.102-1.324-2.021-.188-.847-.088-1.247.25-2.208.332-.915 1.102-2.24 1.102-2.24l1.156-1.958s1.371-2.646 1.803-4.559c.438-1.917-.055-4.039-.055-4.039s-.063-.701-.537-.675c-.481.027-.828.457-1.02.961-.4 1.053.164.865-.438 2.615-.479 1.379-.601 1.196-.853 2.013-.295.983-.459 1.983-.44 2.6.022.61-.314.354-.314.354s-.578-1.092-.578-2.444c0-.738.027-1.151.115-1.886.131-1.18.609-2.986.609-2.986s.522-1.781.409-3.415c-.114-1.631-.688-1.937-.688-1.937s-.146-.224-.782-.183c-.629.041-.603 1.175-.603 1.175s-.19 1.612-.44 2.614c-.697 2.777-1.617 4.229-3.267 6.565-1.483 2.113-3.506 3.967-4.512 4.841-1.006.879-4.104 3.138-4.104 3.138l-3.625 2.413s-1.438 1.402-2.104 3.073c-.668 1.667-.627 2.974-.245 4.508.383 1.53.942 2.25 1.229 2.669.291.423.852 1.179 1.032 2.054.113.547.031.879.064 1.438.031.481.096.756.086 1.233-.018.771.123 1.32-.309 1.949-.328.482-1.203.893-1.203.893s-.979.438-1.566.793c-6.174 3.729-8.369 6.138-11.844 10.295-1.111 1.32-.295 1.242-1.484 2.814-.705.938-2.358.934-2.959 2.058-.826 1.524 1.881 3.032-1.25 4.381-4.022 1.739-10.958.496-11.093-.046-.378-1.504 1.353-3.215 1.962-3.889 2.826-3.088 5.348-3.164 6.268-5.715.196-.547.125-1.016 2.363-2.674 1.58-1.17 7.883-5.91 10.633-9.079.938-1.079 1.758-1.804 2.168-2.979.41-1.179-.41-1.927-.41-1.927l-1.133-1.844-2.164-3.871s-.906-2.054-1.41-3.242c-.498-1.184-1.449-4.394-1.449-4.394s-.701-2.864-.814-4.735c-.215-3.369.25-5.328 1.133-8.584 1.148-4.248 3.752-6.02 4.791-10.213.302-1.216.363-3.306-.25-3.205-.592.101-.643 1.758-1.08 2.858-1.676 4.162-3.889 5.988-5.104 10.306-.816 2.914-1.143 4.648-1.135 7.678 0 1.729-.063 1.41.383 4.416.164 1.11.447 1.699.773 2.777.229.766.848 2.194.848 2.194s.875 1.913 1.166 3.247c.1.449.209.715.182 1.175-.055.797.078.97-.305 1.688-.479.889-.182 1.416-1.713 1.748-1.342.283-4.115-.604-4.115-.604s-11.382-3.456-18.647-2.464c-1.441.195-2.211.72-3.666.691-1.309-.019-1.985-1.047-3.297-.654-.273.082-.357.269-.592.428-1.931 1.343-.456 3.574-5.526 2.413-3.114-.715-6.885-2.613-6.229-3.815.872-1.589 2.047-1.849 4.506-2.858 2.629-1.075 6.577-.771 7.352-.829.952-.063 2.322-.732 4.016-.762 2.933-.049 3.458.297 3.458.297l4.99.437 9.535.128s1.705-.137 2.393-.265c.681-.132 1.224-1.476 1.593-2.117.367-.637-.01-1.584-.01-1.584l-.289-.442-.904-1.466-1.681-2.827-1.86-3.707s-1.216-2.591-1.869-4.289c-.645-1.686-1.018-2.637-1.45-4.386-.449-1.803-.717-3.265-.774-4.702-.074-2.072-.204-3.697.374-5.391" fill="#231f20"/><path d="m160.004 148.979c1.998-2.582 2.195-4.968 2.313-8.347.093-2.45-.838-6.229-.838-6.229l-.127-.273s-.352-.455-.567.146c.034.533.104.961.104.961l.118 4.867s-.155 2.451-.987 4.978c-1.408 4.262-5.142 6.17-5.688 7.695-.922 2.559 3.268-.697 5.672-3.798m-21.055 7.875s-.824.231-.838 1.043c-.021.813.199 1.521.182 2.494-.023 1.238-1.17 2.688-.434 3.15 1.271.802 2.358-4.854 1.973-5.691-.387-.836-.762-1.006-.883-.996m-14.172 39.212s-.232-.127-.691.045c-.455.17-.428.644-.428.644s-.088.501.281.56c.369.051.979-.842.975-.95-.008-.101-.137-.299-.137-.299m-13.322 9.463s-.143.141-.02.24c.119.092.287-.035.287-.035s2.305-1.795 3.666-3.064c1.446-1.354 3.516-3.68 3.516-3.68s.141-.182-.021-.332c-.153-.146-.559.082-.883.236-.287.146-.455.313-.664.492-.215.178-.883.873-.883.873l-1.785 1.734-1.11 1.043-1.088 1.043-.462.523s-.122.199-.149.25c-.031.051-.154.209-.154.209s-.16.16-.16.201-.055.096-.059.146c0 .053-.031.121-.031.121m-3.986 2.614s-.254-.205-.641 0c-.393.2-.811.742-.844.803-.032.059-.252.354-.104.604.146.25.645-.118.715-.132.072-.01.723-.516.723-.516s.377-.236.151-.759m-7.621 7.722s-.321-.614-.749-.359c-.435.25-.663.337-1.054.874-.066.101-.489.646-.569.783-.075.142-.489.938.36.987 1.473.097.512-.855 1.016-1.221.41-.285 1.175-.214 1.184-.515.012-.294-.188-.549-.188-.549m-26.101-30.822s-.888.21-.952.523c-.066.313.517.619.61.633.098.019.303.246.886-.15s.56-.736.56-.736.344-.398-1.104-.27m14.359-.469s-.009-.323-.637-.287c-.631.036-.77.154-.783.246-.019.1.027.26.596.305.574.046.806-.004.824-.264m13.565.397c-1.139-.015-.774.022-1.478.059-1.277.068-1.974.015-3.231-.067-1.764-.112-4.497-.56-4.497-.56s-.344-.073-.48.141c-.129.229.333.697.747.829 2.233.696 2.35.569 3.879.597.849.014 1.325-.072 2.167-.128 1.068-.073 1.571.091 2.732-.219.305-.079.601-.648.161-.652m7.653-2.278s-.23-.26-.699-.032c-.473.231-.756.747-.756.747s-.219.342.246.287c.467-.055.871-.256.99-.328.118-.062.456-.387.219-.674m-6.66-91.766s3.238-3.033 5.543-7.031c1.375-2.381 1.973-7.932.793-6.543-.535.624-1.174 3.511-2.195 5.637-1.454 3.032-4.563 7.331-4.563 7.331s-.669 1.435.422.606m-12.902 7.682s-.344.26-.191.697c.16.437.827.104.827.104s1.482-.56 3.048-.624c1.573-.064 3.746.405 3.746.405s1.036.287 1.211.351c.173.063.738.341.827.374.093.032.624.3.926.027.31-.273-1.883-2.258-4.116-2.559-3.715-.506-6.163 1.088-6.163 1.088zm-15.325 13.1c.269.218 1.514-2.145 2.555-3.638.76-1.102 2.149-2.937 2.149-2.937s.619-.843-.437-.369c-.435.191-1.614 1.088-2.445 2.741-.709 1.403-2.089 3.975-1.822 4.203m-8.59-10.286s-.266.906.809 2.058c1.077 1.147 1.354 2.099 2.042 1.412.191-.182-.671-1.739-1.111-2.167a16.035 16.035 0 0 1 -.765-.783l-.275-.228-.362-.196-.2-.082c-.002 0-.063-.055-.138-.014m-3.479-8.788s-1.161.219-1.451.779c-.287.564 1.339.223 1.339.223s1.082.063 1.106-.351c.028-.414-.14-.465-.994-.651m-18.478 30.622c-.587-.178-.69.993-.765 1.366-.073.378.262 1.138.396 1.129.141-.004.613-.742.64-1.106.027-.365.257-1.23-.271-1.389m19.188 22.804s-1.059-.838-1.222-.504c-.157.326.876 1.808.876 1.808s.312.481.801.259c.485-.223.31-.756.31-.756s-.327-.693-.765-.807m-8.007-24.671s-.269-.064-.373.259c-.098.323-.086.861-.157 1.498-.062.505.13 1.844.13 1.844s.103 1.057.312 1.703c.23.688.845 1.667.845 1.667s.232.51.512.487c.28-.027.216-.364.216-.364s-.888-3.529-.92-3.889c-.107-1.17-.098-2.604-.098-2.604l-.009-.219s-.009-.368-.458-.382m1.391-10.765s-.494-.1-.942.847c-.453.952-.36 1.334-.321 1.379.036.046.4.032.974-.847.567-.875.442-1.202.442-1.202s-.032-.177-.153-.177m13.455 9.759s.597.879-.54.678c-1.134-.205-3.518-2.081-4.483-2.586-.958-.505-2.532-.674-1.869-1.257.116-.104.146-.2.342-.209s.842.25.885.269c.037.022 1.714.71 1.776.733.062.027.998.428 1.669.82.672.396 1.758 1.156 1.758 1.156zm31.381 27.011c.308.979-3.572-2.049-5.651-3.65-5.512-4.239-12.258-12.937-11.416-13.702.701-.637 3.465 3.347 7.518 7.732 4.326 4.679 9.367 9.041 9.549 9.62m16.198-4.159c-1.197 1.285-1.625 2.929-.934 4.158.684 1.192.893-1.744 1.647-2.619.644-.746 1.039-.633 2.113-1.389 1.824-1.286-1.301-1.782-2.826-.15m-6.898-27.442c-.818-.137-.791 1.115-.674 2.012.547 3.989 2.336 7.063 4.727 9.963 1.457 1.757 5.447 4.899 5.916 4.398.168-.182-3.803-3.242-6.325-7.181-1.789-2.792-2.75-5.164-2.97-7.468-.028-.286.041-1.61-.674-1.724m-15.44-59.146c-1.801.979-4.92 1.835-4.92 1.835s-.144.305.257.273c2.671-.209 3.688-.551 5.116-1.175 1.42-.619 2.461-2.327 2.461-2.327s.574-1.052-.503-.182c-.328.265-1.428 1.035-2.411 1.576m21.697-6.857s-.611-.137-1.021.119c-.408.259-.291.469-.291.469s.629.492 1.084.565c.455.068 1.43.492 1.385.164-.037-.332-.584-.938-.766-1.102-.191-.165-.391-.215-.391-.215m-10.214 18.738c.107.214 1.932-.282 2.629-.674.556-.31.765-1.343.765-1.343s.155-1.006-.082-.62c-1.045 1.699-3.414 2.418-3.312 2.637m-.059-4.681c.736-1.407-2.024 1.471-3.429 2.218-.858.455-2.251 1.052-2.251 1.052s-.369.46.146.423c.517-.041 1.831.41 2.885-.419.248-.191 1.361-1.803 1.361-1.803s.933-.793 1.288-1.471m-.426 6.019c.053.232 3.154.15 3.928-.073.605-.177.934-1.261.934-1.261s.373-.942.06-.619c-1.4 1.425-4.973 1.717-4.922 1.953m-49.644 28.309s-.471-.168-1.054.71c-.578.87-3.178 4.813-2.714 5.4.546.688 2.798-3.529 3.483-4.321.69-.788.415-1.598.415-1.598s-.009-.177-.13-.191m56.664 71.276c-.273 1.312.064 3.987.51 4.517 1.103 1.33.428-2.076.582-3.27.133-1.12.279-1.502.82-2.695.984-2.141-1.33-1.348-1.912 1.448m-9.485-114.22s-.858.019-1.53.387c-.671.374-.849.888-.849.888s-.134.374-.041.583c.196.456 1.118-.232 1.771-.004.528.187.779.337 1.175.819.351.424.97 1.025 1.357.683.387-.341.248-1.193.248-1.193s-.458-1.394-1.054-1.794c-.597-.396-1.077-.369-1.077-.369m-14.25 9.822s-.476.078-.364.656c.114.579.425.487.425.487s.993-.423.927-1.02c-.059-.605-.988-.123-.988-.123m-6.958-3.119s-.521.019-.886.665c-.366.646-.578 1.312-.578 1.312s-.175.851.132 1.115c.308.269.638-.551 1.077-.86.266-.191.428-.282.699-.469.374-.259.979.073.934-.683-.048-.756-.854-1.116-1.378-1.08m22.48-8.096s-1.184-.168-1.138.287c.039.419.644.168 1.031.342.378.164.619.232.921.514.222.196.195.583.468.587.377.005.297-.146.297-.146s-.338-1.02-.783-1.316c-.44-.286-.796-.268-.796-.268m13.213 4.772c-.174.642-.277.87-.277.87s-.334 1.307.992.824c1.32-.492.644-.282 1.588-.742.943-.46.912-.209 1.604-.178.235.009.383.023.737-.05.296-.059.173-.418-.491-.596-.716-.191-1.604-.141-2.623-.155-.593-.005-1.358-.61-1.53.027m.582-4.845s-.609-.132-1.02.123c-.414.26-.291.464-.291.464s.633.497 1.084.565c.455.077 1.43.496 1.393.164-.045-.332-.592-.933-.773-1.102a1.1 1.1 0 0 0 -.393-.214m2.332 9.089s-.652-.127-1.094.123c-.445.246-.314.437-.314.437s.68.464 1.162.533c.482.064 1.529.46 1.488.146-.041-.31-.623-.879-.824-1.039-.199-.155-.418-.2-.418-.2m.191 3.301s-.688-.15-1.156.132c-.465.277-.324.505-.324.505s.715.533 1.225.615c.517.077 1.613.528 1.566.168-.045-.355-.654-1.011-.865-1.193-.209-.176-.446-.227-.446-.227m.315 3.215s-.748-.168-1.252.146c-.506.319-.355.569-.355.569s.777.605 1.328.692c.558.086 1.75.605 1.703.205-.049-.405-.719-1.147-.946-1.352-.228-.201-.478-.26-.478-.26m-.078 3.975s-.742-.168-1.252.15c-.506.314-.352.569-.352.569s.775.601 1.33.688c.557.091 1.758.605 1.703.2-.051-.405-.719-1.143-.947-1.348a1.233 1.233 0 0 0 -.482-.259m-.541 7.746s-.748-.168-1.254.15c-.504.314-.354.569-.354.569s.773.606 1.328.692c.557.091 1.758.601 1.703.2-.049-.405-.719-1.147-.947-1.353-.226-.199-.476-.258-.476-.258m.503-3.88s-.859-.191-1.447.173c-.582.364-.406.656-.406.656s.898.701 1.535.801c.643.1 2.031.697 1.967.232-.055-.469-.828-1.325-1.092-1.558-.264-.236-.557-.304-.557-.304m-.873 7.377s-.611-.141-1.029.123c-.42.259-.291.469-.291.469s.637.497 1.098.569c.455.073 1.438.501 1.396.164-.041-.333-.592-.943-.777-1.111-.188-.169-.397-.214-.397-.214m-.578 3.36s-.506-.114-.852.105c-.347.214-.246.387-.246.387s.532.415.909.474c.38.059 1.197.41 1.162.137-.032-.278-.487-.783-.644-.924a.856.856 0 0 0 -.329-.179m-.715 3.06s-.461-.105-.775.091c-.309.191-.219.351-.219.351s.475.374.82.424c.342.059 1.08.373 1.053.127-.033-.25-.443-.71-.584-.829-.14-.128-.295-.164-.295-.164m-.728 2.509s-.465-.104-.775.086c-.309.196-.219.355-.219.355s.479.369.82.423c.346.059 1.08.374 1.047.123-.031-.246-.441-.706-.582-.829-.137-.121-.291-.158-.291-.158m-.875 2.91s-.373-.086-.619.073c-.256.16-.178.287-.178.287s.387.296.66.346c.277.041.875.296.848.095-.027-.2-.359-.569-.475-.669a.595.595 0 0 0 -.236-.132m-1.047 2.727s-.318-.068-.533.064c-.219.132-.154.246-.154.246s.332.255.568.292c.236.041.752.26.734.086-.023-.168-.314-.492-.406-.578a.517.517 0 0 0 -.209-.11m-1.08 2.587s-.322-.068-.533.068c-.223.132-.154.241-.154.241s.338.26.574.296c.236.041.746.264.729.087-.027-.173-.312-.492-.41-.579s-.206-.113-.206-.113m-70.03 13.173s-.54 1.047-.275 1.621c.267.574.995-.916.995-.916s.753-1.489.446-1.762c-.312-.277-.49.497-1.166 1.057" fill="#fff"/><path d="m86.615 207.082s-.405-.523-.788-.143c-.383.384-.881.994-1.767.935-.89-.067-1.272-.205-1.773-.419-.494-.219-1.188-.546-1.188-.546s-1.808-.697-3.342-.733c-1.53-.041-4.034.598-5.246 1.912-1.213 1.307-1.521 2.669-1.521 2.669s-.405 2.392.29 3.483c.694 1.102 1.45 2.281 3.133 3.314 1.689 1.033 2.424 1.416 2.424 1.416l2.93 1.348 2.708 1.021s3.914 1.17 4.389 4.13c.474 2.961-1.302 6.789-6.705 7.141-5.316.347-7.905-2.235-8.733-3.889-.827-1.662-.351-3.064-.351-3.064l.223-.455.209-.104s.827.56 1.637.454c.808-.104 2.295-1.079 1.987-2.668-.312-1.594-1.739-1.944-2.425-1.886-.681.061-3.727.848-3.786 5.277-.062 4.427 3.973 6.785 3.973 6.785s2.857 1.779 6.083 1.639c3.228-.146 5.899-1.43 5.899-1.43s4.779-2.377 4.906-7.572c.121-5.19-3.167-7.018-3.167-7.018s-1.179-.824-2.256-1.324a294.711 294.711 0 0 1 -3.661-1.739l-2.629-1.198-1.594-.888-.893-.601s-2.128-1.677-.993-3.498c1.139-1.82 4.431-1.139 4.431-1.139s2.545.537 4.531 1.967c1.988 1.426 3.149 3.143 3.149 3.143l.824 1.349.102.187.706-.246s-1.098-3.063-1.307-4.349c-.204-1.28-.409-3.261-.409-3.261m31.506 17.518s.711.787 1.656.787c.957 0 2.313-.664 2.295-2.382-.018-1.716-1.756-2.176-1.756-2.176s-2.629-.619-3.908 2.054c-1.283 2.668-.582 4.985-.582 4.985s.602 3.603 4.408 5.733c3.806 2.129 7.887.56 7.887.56s3.059-1.017 5.709-3.998c2.65-2.978 3.912-6.517 3.912-6.517l.928-2.316 1.117.021s1.557.146 2.648-.746c1.104-.894 1.785-2.112 1.785-2.112l.143-.369-.707-.328s-.801 1.052-1.922 1.157c-1.115.1-2.275-.087-2.275-.087l1.074-2.878s1.242-2.504 1.598-3.084c.352-.577 1.799-2.439 1.799-2.439s2.979-.018 5.855-.619c2.879-.601 4.654-1.324 4.654-1.324l3.561-1.472.869-.474-.268-.706s-3.207 1.139-7.951 1.681c-4.734.537-7.713-.041-7.713-.041l-5.383-.833s-1.636-.265-2.896-.286c-1.26-.02-3.834.45-3.834.45s-2.559.582-3.715 1.452c-1.166.87-3.916 2.9-2.65 6.002 1.258 3.105 6.412 1.447 7.141-.852-.026.021.287-.742.287-.742l.086-.415-.44-.168-.517.601s-1.922 1.617-3.414.578c-1.483-1.033-.475-2.477-.328-2.646.142-.162.947-1.137 2.873-1.569s4.822.269 4.822.269l3.146.578s1.738.332 1.816.332c.086 0 .646.082.646.082l-1.099 1.221s-1.594 1.53-2.713 3.748c-1.115 2.213-1.631 3.369-1.631 3.369l-.109.168s-1.401.164-2.289.701c-.893.538-1.471 1.366-1.471 1.366l-.416.747.558.474s.643-.725 1.43-.929c.787-.21 1.386.104 1.386.104s-1.14 2.811-1.677 3.825-1.448 2.878-2.731 4.263c-1.279 1.384-2.213 2.59-5.15 3.004-2.938.41-5.01-1.475-5.773-2.403-.77-.929-1.221-2.34-1.262-3.369-.046-1.04.491-2.032.491-2.032" fill="#231f20"/></svg>